<svg id="f4a15209-0c62-4718-bc80-bb2f53d23354" data-name="Layer 1" xmlns="http://www.w3.org/2000/svg" viewBox="0 0 1000.33 1013.12"><title>fav</title><path d="M1000,1013.12H-.33V0H1000ZM699.64,797v-7.36q-7.36-.81-15.55-2a128.7,128.7,0,0,1-15.54-3.27,32.23,32.23,0,0,1-12.28-6.14,12.38,12.38,0,0,1-4.91-9.82V527a260.11,260.11,0,0,0-4.48-49.91q-4.5-22.89-15.5-39.68A76,76,0,0,0,602,411.23q-18.35-9.41-45.24-9.41-27.74,0-51,9.41a191.24,191.24,0,0,0-41.17,22.5,154.83,154.83,0,0,0-29.76,27.82q-11.83,14.71-17.52,26.18l-1.64-.82L418.18,203h-6.54L302,252.91v4.91a236.16,236.16,0,0,0,21.68,11.86,79.32,79.32,0,0,1,17.59,11.05c3.81,2.73,6.14,5.19,7,7.36s1.23,5.46,1.23,9.82V762.64q0,15.54-15.14,20a170.82,170.82,0,0,1-34,6.14V797H463.18v-8.18q-8.19-1.64-16.36-2.46a72.61,72.61,0,0,1-14.73-2.86,25.09,25.09,0,0,1-10.63-6.14c-2.74-2.72-4.09-6.54-4.09-11.45V514.73a41.49,41.49,0,0,1,2.86-14.32q2.85-7.77,4.5-10.23a87.82,87.82,0,0,1,32.73-28.63q20.43-10.64,49.9-10.64,22.9,0,37.64,8.18A60.73,60.73,0,0,1,568.32,482q8.59,14.73,11.86,35.18a280.33,280.33,0,0,1,3.28,44.18V765.91q0,13.1-14.73,16.77T531.91,788v9Z" transform="translate(0.33 0)"/></svg>