<svg data-name="Layer 1" xmlns="http://www.w3.org/2000/svg" viewBox="0 0 665.95 127.39"><path d="M49.45 126.87v-1.92a46.78 46.78 0 0 0 7.87-1.14c2.09-.52 3.14-1.72 3.14-3.58V76.54a59.31 59.31 0 0 0-.7-9.43 21.57 21.57 0 0 0-2.53-7.52 13 13 0 0 0-5-4.89 16.51 16.51 0 0 0-8-1.75 23 23 0 0 0-10.66 2.27 18.89 18.89 0 0 0-7 6.12 13 13 0 0 0-1 2.18 8.88 8.88 0 0 0-.61 3.06v53.65a3.33 3.33 0 0 0 .87 2.45 5.44 5.44 0 0 0 2.27 1.31 16.3 16.3 0 0 0 3.15.61c1.16.12 2.33.29 3.49.52v1.75H0v-1.75a36.37 36.37 0 0 0 7.25-1.31 4.1 4.1 0 0 0 3.24-4.28V20.28a6.16 6.16 0 0 0-.27-2.1 3.92 3.92 0 0 0-1.48-1.57 17 17 0 0 0-3.76-2.36 49.83 49.83 0 0 1-4.63-2.54v-1L23.77.05h1.36l-.52 60.64.35.18a32.46 32.46 0 0 1 3.74-5.6 33.24 33.24 0 0 1 6.36-5.94 40.86 40.86 0 0 1 8.79-4.8 28.76 28.76 0 0 1 10.89-2 21 21 0 0 1 9.66 2 16.21 16.21 0 0 1 6.27 5.59 23.49 23.49 0 0 1 3.31 8.47 55.52 55.52 0 0 1 1 10.66v51.46a2.66 2.66 0 0 0 1 2.1 7 7 0 0 0 2.63 1.31 26.62 26.62 0 0 0 3.32.7c1.16.18 2.27.32 3.32.44v1.57zM203.58 116.21a21.87 21.87 0 0 1-3.67 5.68 15.11 15.11 0 0 1-5.33 3.84 16.8 16.8 0 0 1-6.73 1.31 17.06 17.06 0 0 1-10.57-3.49q-4.63-3.5-4.63-12.23l-.35-.18a43.56 43.56 0 0 1-3.76 5.07 34.31 34.31 0 0 1-5.59 5.24 28 28 0 0 1-7.17 3.93 24.06 24.06 0 0 1-8.65 1.49 21.36 21.36 0 0 1-5.68-.79 13.39 13.39 0 0 1-5.24-2.79 15.16 15.16 0 0 1-3.84-5.16 17.9 17.9 0 0 1-1.49-7.69 14.3 14.3 0 0 1 3.93-9.43 44.18 44.18 0 0 1 9.7-8.22q5.78-3.66 10.22-6.29t7.78-4.45c2.21-1.23 4.17-2.27 5.86-3.15s3.11-1.66 4.28-2.36v-18a6 6 0 0 0-.62-1.66 9 9 0 0 0-2.09-2.7 14.08 14.08 0 0 0-4.11-2.54 17.46 17.46 0 0 0-6.81-1.13 16.39 16.39 0 0 0-5.51 1 19.66 19.66 0 0 0-4.8 2.44 17.12 17.12 0 0 0-3.32 3 4.37 4.37 0 0 0-1.23 2.54v7.86a5.47 5.47 0 0 1-2.53 4.37 8.94 8.94 0 0 1-5.51 1.92 6.55 6.55 0 0 1-4.8-2 6.36 6.36 0 0 1-2-4.63 7.29 7.29 0 0 1 1.05-3.84 13.52 13.52 0 0 1 2.62-3.15 19.6 19.6 0 0 1 3.41-2.44c1.22-.7 2.3-1.34 3.23-1.93q4.54-2.61 9.26-5.06c3.15-1.63 6.14-3 9-4.2a82.75 82.75 0 0 1 7.86-2.79 21.83 21.83 0 0 1 5.86-1.05 16.56 16.56 0 0 1 8.56 2.36 14.26 14.26 0 0 1 5.76 5.8 10.78 10.78 0 0 1 .87 4.28q.18 3.06.18 6 0 6.28-.09 11.36t-.09 9.78q0 4.72-.09 9.7c-.06 3.32-.08 7-.08 10.93q0 7.86 2.7 10.39a8.85 8.85 0 0 0 6.21 2.54c2.68 0 4.66-.56 5.94-1.66a8.41 8.41 0 0 0 2.65-4.32h1a18.27 18.27 0 0 1-1.55 6.5zm-30.93-36.87a70.15 70.15 0 0 1-7.87 4.8q-4.71 2.53-9.17 5.51a40.8 40.8 0 0 0-7.69 6.55 11.79 11.79 0 0 0-3.23 8.13 12.33 12.33 0 0 0 3.14 8.21 10.31 10.31 0 0 0 8.22 3.67 28 28 0 0 0 8-1.05 15.42 15.42 0 0 0 6.47-4 6.33 6.33 0 0 0 2.1-4.89zM292.7 126.87v-1.92a38.88 38.88 0 0 0 7.51-1.14 3.43 3.43 0 0 0 2.8-3.58v-44q0-10.12-3.85-16.33t-12.93-6.21a17.58 17.58 0 0 0-9.61 2.45 52.48 52.48 0 0 0-8.56 7.16v57.32a4.49 4.49 0 0 0 1.22 2.53 5.1 5.1 0 0 0 2.1 1.14 13 13 0 0 0 2.75.42 24.19 24.19 0 0 1 3.32.43v1.75h-33.68v-1.75a22.48 22.48 0 0 0 6.9-1.57 4.15 4.15 0 0 0 2.88-4V59.42a6.24 6.24 0 0 0-.26-2.1 4 4 0 0 0-1.48-1.57l-3.68-2.04a44.53 44.53 0 0 0-4.2-2v-1l22.89-8.21h1.05v18.87l.35.18a62.68 62.68 0 0 1 4.79-6.38 41.44 41.44 0 0 1 6.53-6.21 36.93 36.93 0 0 1 8-4.63 23.12 23.12 0 0 1 9.05-1.83q10.11 0 15.5 7.51t5.4 19.4v51.3a2.57 2.57 0 0 0 1.14 2.1 7.81 7.81 0 0 0 2.7 1.31 26.62 26.62 0 0 0 3.41.7c1.22.18 2.36.32 3.41.44v1.57zM445.77 100.92a45.69 45.69 0 0 1-8.91 13.89 40.29 40.29 0 0 1-13 9.26 37.77 37.77 0 0 1-15.64 3.32 44.67 44.67 0 0 1-14.15-2.44 40 40 0 0 1-13.55-7.78 40.48 40.48 0 0 1-10.13-13.63 45.09 45.09 0 0 1-3.93-19.48 41.12 41.12 0 0 1 3.05-15.56 41.41 41.41 0 0 1 21.85-22.54 41.49 41.49 0 0 1 17.21-3.49 41.79 41.79 0 0 1 27.17 10.4 40 40 0 0 1 9.61 12.93 41.46 41.46 0 0 1 3.78 18.26 43.37 43.37 0 0 1-3.36 16.86zm-14.24-29.79a46.41 46.41 0 0 0-4.28-12.59 28 28 0 0 0-7.87-9.52 19.23 19.23 0 0 0-12-3.76 16.46 16.46 0 0 0-10.31 3.5 30.37 30.37 0 0 0-7.78 9.17 47.28 47.28 0 0 0-4.94 12.78 62.73 62.73 0 0 0-1.66 14.42 78.65 78.65 0 0 0 1.4 15.2 41.14 41.14 0 0 0 4.54 12.67 25.28 25.28 0 0 0 8 8.73 20.71 20.71 0 0 0 11.71 3.24 16.61 16.61 0 0 0 11.44-4.11 31 31 0 0 0 7.52-10.31 54.91 54.91 0 0 0 4.19-13.37 74.39 74.39 0 0 0 1.31-13.28 68 68 0 0 0-1.27-12.77zM549.22 58.11a6.87 6.87 0 0 1-5.24 2.53 8.89 8.89 0 0 1-4.46-1 13.78 13.78 0 0 1-2.88-2.18 18.67 18.67 0 0 0-2.62-2.19 7.13 7.13 0 0 0-7.95.53 18.79 18.79 0 0 0-3.76 3.75 29.54 29.54 0 0 0-3.18 5.16q-1.39 2.88-2.44 5.5v50.33a4.23 4.23 0 0 0 2.27 2.45 13.4 13.4 0 0 0 3.93 1.22 38.38 38.38 0 0 0 4.54.44 26.79 26.79 0 0 1 4.11.43v1.75h-39.11v-1.75a22.48 22.48 0 0 0 6.9-1.57 4.15 4.15 0 0 0 2.88-4V60.47a6.51 6.51 0 0 0-.26-2.1 4 4 0 0 0-1.49-1.57c-1-.58-2.27-1.31-3.66-2.19a29 29 0 0 0-4.2-2.18v-1.05l22.89-8.91h1l-.35 24.29h.35q.87-2.1 2.8-6.12a52.24 52.24 0 0 1 4.89-8.12 30.51 30.51 0 0 1 7.17-7.08 16.18 16.18 0 0 1 9.61-3 11 11 0 0 1 7.42 2.62 8.37 8.37 0 0 1 3.06 6.64 9.23 9.23 0 0 1-2.22 6.41zM664.37 116.21a21.36 21.36 0 0 1-3.67 5.68 15 15 0 0 1-5.32 3.84 16.83 16.83 0 0 1-6.73 1.31 17.06 17.06 0 0 1-10.52-3.49q-4.63-3.5-4.63-12.23l-.35-.18a43.56 43.56 0 0 1-3.76 5.07 34.31 34.31 0 0 1-5.59 5.24 28 28 0 0 1-7.17 3.93 24.06 24.06 0 0 1-8.65 1.49 21.36 21.36 0 0 1-5.68-.79 13.39 13.39 0 0 1-5.24-2.79 15.16 15.16 0 0 1-3.84-5.16 17.9 17.9 0 0 1-1.49-7.69 14.3 14.3 0 0 1 3.93-9.43 44 44 0 0 1 9.7-8.22q5.77-3.66 10.22-6.29t7.78-4.45c2.21-1.23 4.16-2.27 5.85-3.15s3.12-1.66 4.29-2.36v-18a6 6 0 0 0-.62-1.66 9.22 9.22 0 0 0-2.09-2.7 14.08 14.08 0 0 0-4.11-2.54 17.46 17.46 0 0 0-6.81-1.13 16.39 16.39 0 0 0-5.51 1 19.92 19.92 0 0 0-4.81 2.44 17.33 17.33 0 0 0-3.31 3 4.37 4.37 0 0 0-1.23 2.54v7.86a5.47 5.47 0 0 1-2.53 4.37 8.94 8.94 0 0 1-5.51 1.92 6.55 6.55 0 0 1-4.8-2 6.36 6.36 0 0 1-2-4.63 7.29 7.29 0 0 1 1-3.84 13.52 13.52 0 0 1 2.62-3.15 19.6 19.6 0 0 1 3.41-2.44c1.22-.7 2.29-1.34 3.23-1.93q4.55-2.61 9.26-5.06c3.15-1.63 6.14-3 9-4.2a82.75 82.75 0 0 1 7.86-2.79 21.83 21.83 0 0 1 5.86-1.05 16.59 16.59 0 0 1 8.56 2.36 14.26 14.26 0 0 1 5.76 5.8 10.78 10.78 0 0 1 .87 4.28q.16 3.06.17 6 0 6.28-.08 11.36t-.09 9.78q0 4.72-.09 9.7c-.06 3.32-.09 7-.09 10.93q0 7.86 2.71 10.39a8.83 8.83 0 0 0 6.21 2.54c2.68 0 4.65-.56 5.94-1.66a8.41 8.41 0 0 0 2.62-4.29h1.05a18.07 18.07 0 0 1-1.58 6.47zm-30.92-36.87a70.15 70.15 0 0 1-7.87 4.8q-4.71 2.53-9.17 5.51a40.8 40.8 0 0 0-7.69 6.55 11.79 11.79 0 0 0-3.23 8.13 12.28 12.28 0 0 0 3.14 8.21 10.29 10.29 0 0 0 8.21 3.67 28 28 0 0 0 8-1.05 15.42 15.42 0 0 0 6.47-4 6.33 6.33 0 0 0 2.1-4.89z"/></svg>